# xmcd
#
# Track frame offsets: 
#        150
#        12975
#        26705
#        43017
#        58105
#        64940
#        72755
#        83835
#        97382
#        110182
#        121645
#        139140
#        152722
#        161530
#        175195
#        186970
#        196580
#        217815
#        225952
#
# Disc length: 3210 seconds
#
# Revision: 17
# Processed by: cddbd v1.5.2PL0 Copyright (c) Steve Scherf et al.
# Submitted via: ExactAudioCopyFreeDBPlugin 1.0
#
DISCID=030c8813
DTITLE=Barbara - Vol 01 - La Chanteuse de Minuit - 1957-58-59
DYEAR=1900
DGENRE=Country
TTITLE0=Mon Pote le gitan
TTITLE1=L'Oeillet blanc
TTITLE2=L'Homme en habit
TTITLE3=J'ai tu l'amour
TTITLE4=Maitresse d'acteur
TTITLE5=Veuve de guerre
TTITLE6=D'Elle  lui
TTITLE7=Les Boutons dors
TTITLE8=Les Voyages
TTITLE9=La Belle d'amour
TTITLE10=Souris pas Tony
TTITLE11=La Femme d'Hector
TTITLE12=Les Amis de Monsieur
TTITLE13=Tais-toi Marseille
TTITLE14=Souvenance
TTITLE15=Il nous faut regarder
TTITLE16=Un Monsieur me suit dans la rue
TTITLE17=La Joconde
TTITLE18=Les Sirnes
EXTD=
EXTT0=
EXTT1=
EXTT2=
EXTT3=
EXTT4=
EXTT5=
EXTT6=
EXTT7=
EXTT8=
EXTT9=
EXTT10=
EXTT11=
EXTT12=
EXTT13=
EXTT14=
EXTT15=
EXTT16=
EXTT17=
EXTT18=
PLAYORDER=
